<svg width="19" height="18" viewBox="0 0 19 18" fill="none" xmlns="http://www.w3.org/2000/svg">
<path fill-rule="evenodd" clip-rule="evenodd" d="M1.53201 14.4929C2.29479 15.6463 3.72806 16.042 4.73336 15.3772L3.66687 13.7646C4.46572 14.5647 5.64359 14.7752 6.50629 14.2046L5.43784 12.5891C6.23673 13.3913 7.4162 13.6028 8.27982 13.0317L5.5178 8.85541C4.65418 9.42658 4.38722 10.5948 4.81273 11.6439L3.74427 10.0284C2.88204 10.5986 2.61438 11.7652 3.03794 12.8136L1.97134 11.2009C0.966044 11.8658 0.76923 13.3396 1.53201 14.4929Z" fill="#FF4802"/>
<path fill-rule="evenodd" clip-rule="evenodd" d="M14.1345 15.7443C14.3357 15.964 14.6015 16.0892 14.8762 16.1176C14.8806 16.3937 14.9822 16.6694 15.1835 16.889C15.6201 17.3654 16.3601 17.3977 16.8365 16.9611C17.0763 16.7414 17.2036 16.4447 17.2152 16.1434C17.5163 16.1581 17.8229 16.0572 18.0627 15.8374C18.5391 15.4008 18.5714 14.6608 18.1348 14.1844C17.9336 13.9648 17.6678 13.8395 17.3931 13.8111C17.3887 13.535 17.2871 13.2593 17.0858 13.0397C16.6492 12.5633 15.9091 12.531 15.4328 12.9676C15.193 13.1873 15.0657 13.484 15.0541 13.7853C14.753 13.7706 14.4464 13.8715 14.2066 14.0913C13.7302 14.5279 13.6979 15.268 14.1345 15.7443Z" fill="#DAA8EF"/>
<path fill-rule="evenodd" clip-rule="evenodd" d="M13.6457 5.19751C14.971 5.38061 16.3517 4.7479 17.0808 3.49543C15.7289 2.7084 14.0393 2.99485 12.9691 4.08929L13.2636 3.58347C13.8103 2.64432 13.5103 1.44865 12.5941 0.915246L11.3494 0.19067L10.6067 1.46641C10.06 2.40556 10.36 3.60123 11.2763 4.13463L11.4416 4.23087C10.1163 4.04777 8.73563 4.68048 8.00649 5.93295C9.35839 6.71998 11.048 6.43353 12.1182 5.33909L11.8237 5.84492C11.277 6.78406 11.577 7.97973 12.4933 8.51314L13.7379 9.23771L14.4806 7.96197C15.0273 7.02282 14.7273 5.82715 13.811 5.29375L13.6457 5.19751Z" fill="#3057A7"/>
<path d="M4.00315 5.50448C5.47709 5.50448 6.67195 4.30962 6.67195 2.83569C6.67195 1.36175 5.47709 0.166885 4.00315 0.166885C2.52921 0.166885 1.33435 1.36175 1.33435 2.83569C1.33435 4.30962 2.52921 5.50448 4.00315 5.50448Z" fill="#EDCE18"/>
</svg>
